<?xml version="1.0" ?><!DOCTYPE svg  PUBLIC '-//W3C//DTD SVG 1.1//EN'  'http://www.w3.org/Graphics/SVG/1.1/DTD/svg11.dtd'><svg height="64px" style="shape-rendering:geometricPrecision; text-rendering:geometricPrecision; image-rendering:optimizeQuality; fill-rule:evenodd; clip-rule:evenodd" version="1.1" viewBox="0 0 4167 4167" width="64px" xml:space="preserve" xmlns="http://www.w3.org/2000/svg" xmlns:xlink="http://www.w3.org/1999/xlink"><defs><style type="text/css">
   <![CDATA[
    .fil0 {fill:#333333;fill-rule:nonzero}
   ]]>
  </style></defs><g id="РЎР_x00bb_РѕР_x2116__x0020_1"><g id="_605262032"><path class="fil0" d="M3434 494c-421,-277 -1070,-185 -1406,197 -123,-139 -284,-245 -471,-294 -537,-143 -1043,179 -1239,677 -217,550 -117,1184 342,1579 397,343 1169,556 1204,1181 7,-111 -12,-213 -51,-307 179,-405 745,-506 1113,-665 468,-203 894,-580 1006,-1097 101,-474 -87,-1002 -498,-1271zm331 1239l0 0c-93,450 -457,795 -850,1003 -361,191 -967,346 -1105,785 -130,-308 -466,-531 -727,-712 -488,-340 -818,-801 -683,-1426 107,-493 453,-907 995,-882 529,25 920,535 880,1051 55,-309 -43,-627 -243,-856 328,-271 865,-356 1237,-140 401,233 588,731 496,1177z"/><path class="fil0" d="M2857 971c232,169 299,535 142,776 383,-133 288,-819 -142,-776z"/></g></g></svg>